<?xml version="1.0" encoding="UTF-8" standalone="no"?>
<!-- Created with Inkscape (http://www.inkscape.org/) -->

<svg
   width="488.17496mm"
   height="118.11333mm"
   viewBox="0 0 488.17496 118.11333"
   version="1.1"
   id="svg1"
   xml:space="preserve"
   xmlns="http://www.w3.org/2000/svg"
   xmlns:svg="http://www.w3.org/2000/svg"><defs
     id="defs1" /><path
     style="fill:#ffffff;stroke-width:1.52359"
     d="m 125.77257,59.056668 c 0,-39.10236 -0.13621,-59.0566599419102 -0.40311,-59.0566599419102 -0.26692,0 -0.40313,19.9542999419102 -0.40313,59.0566599419102 0,39.102365 0.13621,59.056662 0.40313,59.056662 0.2669,0 0.40311,-19.954297 0.40311,-59.056662 z m 29.29948,55.297162 c 2.76948,-1.02162 4.21402,-3.08711 4.77132,-6.82232 l 0.2857,-1.91481 h -2.06136 c -1.97986,0 -2.06139,0.0438 -2.06198,1.10857 -9e-4,1.57536 -1.23427,3.83122 -2.41808,4.42274 -2.41099,1.2047 -5.55356,0.24409 -6.49387,-1.98502 -0.62285,-1.4765 -0.82323,-16.513951 -0.24752,-18.574908 0.61111,-2.187758 4.35934,-3.409237 6.90391,-2.249855 1.03559,0.471843 1.85307,2.163307 1.85307,3.834203 0,0.871596 0.1659,0.947638 2.06751,0.947638 h 2.06752 l -0.27836,-2.116364 c -0.32489,-2.469971 -1.18694,-4.113814 -2.77896,-5.299165 -0.9743,-0.725423 -1.70456,-0.848371 -5.03897,-0.848371 -4.96288,0 -6.48629,0.790961 -8.08357,4.197025 -1.02678,2.189535 -1.05648,2.473766 -1.05624,10.113632 3.4e-4,10.730175 0.84674,13.263125 5.03872,15.078875 1.66419,0.72084 5.71262,0.77897 7.53116,0.10813 z m 22.14263,-0.51655 c 1.72522,-0.84526 3.1611,-2.72567 3.77846,-4.94822 0.22281,-0.80209 0.40212,-5.17709 0.39848,-9.722235 -0.006,-7.147823 -0.1065,-8.483924 -0.74662,-9.893045 -1.52965,-3.367538 -4.47323,-4.829292 -9.12386,-4.530833 -3.59335,0.230608 -5.40117,1.238809 -6.95212,3.877137 l -1.105,1.879724 v 8.667017 c 0,7.322445 0.11061,8.953435 0.71261,10.513265 0.85634,2.21861 2.47393,3.85711 4.58324,4.64249 2.05243,0.7642 6.41569,0.51375 8.45481,-0.4853 z m -7.77995,-2.9606 c -1.84513,-1.12505 -2.13627,-2.70803 -2.13885,-11.629094 -0.003,-8.313696 0.21341,-9.416969 2.10073,-10.738893 1.20228,-0.842106 4.5187,-0.811366 5.98616,0.05549 1.99352,1.177597 2.39191,2.948737 2.39191,10.633854 0,7.891153 -0.39079,10.028583 -2.0958,11.463253 -1.51097,1.27141 -4.35154,1.3694 -6.24415,0.21539 z m 150.42963,3.56208 c 2.11254,-0.58649 4.42897,-2.94843 5.10825,-5.20862 0.376,-1.25105 0.54137,-4.32085 0.54263,-10.073276 0.002,-8.046207 -0.026,-8.329048 -1.0143,-10.279486 -1.39517,-2.753714 -4.2005,-4.2267 -8.02549,-4.213915 -4.35773,0.01463 -7.2773,1.898545 -8.56009,5.523766 -0.758,2.142116 -0.74679,16.123711 0.0152,18.745491 1.38109,4.75299 6.36457,7.05224 11.93398,5.50604 z m -6.59962,-3.80901 c -0.67567,-0.56853 -1.41419,-1.7023 -1.64116,-2.51948 -0.22695,-0.81718 -0.41367,-4.81431 -0.4149,-8.882521 -0.002,-6.014338 0.12097,-7.656306 0.65679,-8.785556 0.794,-1.673268 2.36798,-2.562646 4.53522,-2.562646 2.29355,0 3.55687,0.594115 4.47885,2.106315 0.73252,1.201426 0.80505,2.035608 0.80643,9.273585 0.002,8.921113 -0.37581,10.743693 -2.44715,11.814823 -1.85723,0.96041 -4.54182,0.76066 -5.97408,-0.44452 z M 2.0156104,94.127862 V 74.173564 H 13.90757 25.79953 v 3.023378 3.023378 h -7.8608 -7.86077 v 4.635848 4.635847 h 7.45766 7.45767 v 3.023378 3.023378 h -7.45767 -7.45766 v 9.271699 9.27169 H 20.15588 30.2338 V 94.127862 74.173564 h 3.82963 3.82961 v 19.954298 19.954298 l 7.75999,-0.021 7.76,-0.021 -2.07341,-0.79738 c -4.19056,-1.61158 -7.31383,-5.58483 -8.84661,-11.25413 -1.00294,-3.709584 -1.0142,-11.834906 -0.0209,-15.095814 1.75872,-5.773802 4.88176,-9.720504 9.32849,-11.788738 2.16098,-1.005106 2.8697,-1.125353 6.65142,-1.128529 3.47847,-0.0029 4.56479,0.149982 6.09611,0.858038 4.015095,1.856517 7.006375,5.792769 7.487195,9.852434 l 0.23498,1.984162 H 68.227855 64.18539 L 63.92963,85.306865 C 63.5228,83.138213 61.54423,80.736798 59.712,80.18785 c -3.53056,-1.057783 -6.76936,1.034616 -8.55835,5.529041 -0.84127,2.11352 -0.94234,3.026726 -0.95328,8.612516 -0.0137,7.362623 0.5546,9.636983 3.03059,12.112963 2.10847,2.10848 4.42418,2.47679 7.13111,1.13418 2.09153,-1.03736 3.7336,-3.53254 3.7336,-5.67333 v -1.12394 h 4.232725 c 3.42986,0 4.23274,0.11094 4.23274,0.58484 0,1.29151 -0.94824,4.94047 -1.62888,6.26815 -1.00843,1.96711 -3.87391,4.63838 -6.030345,5.62164 l -1.81404,0.82713 4.174695,-0.10022 4.17469,-0.10022 1.34347,-3.62806 c 0.7389,-1.99543 3.27216,-8.97943 5.62945,-15.520007 2.3573,-6.540575 4.9821,-13.796683 5.83292,-16.124685 l 1.54691,-4.23273 4.62496,-0.113157 c 4.12153,-0.100846 4.65611,-0.03503 4.91116,0.604676 0.27986,0.701917 3.71618,10.55117 9.743925,27.928243 1.65353,4.76686 3.21503,9.25658 3.47,9.97715 0.34103,0.96377 0.70861,1.31013 1.3904,1.31013 h 0.92682 V 58.451998 2.8218281 H 55.42861 4.4109183e-7 V 58.451998 114.08216 H 1.0078004 2.0155904 Z M 99.273115,108.64008 97.393995,103.198 h -7.37747 c -4.05762,0 -7.3775,0.0621 -7.3775,0.13799 0,0.0759 -0.81631,2.4528 -1.81402,5.282 -0.99772,2.8292 -1.81403,5.21604 -1.81403,5.30409 0,0.0881 4.98179,0.16008 11.07063,0.16008 h 11.070645 z m 90.286915,-6.95377 0.10665,-12.395853 5.63907,12.395853 5.63906,12.39585 h 2.52406 2.52404 V 99.569943 85.057726 h -1.60664 -1.60664 l -0.10665,12.285111 -0.10666,12.285113 -5.51945,-12.184334 -5.51947,-12.184331 -2.64366,-0.119206 -2.64365,-0.119191 v 14.530635 14.530637 h 1.60664 1.60665 z m 31.4433,-0.40312 0.1065,-12.798968 3.72882,-0.115915 3.72884,-0.115899 v -1.597342 -1.597342 h -9.47325 -9.47326 v 1.61247 1.612468 h 3.82961 3.82963 v 12.899748 12.89975 h 1.80835 1.80837 z m 27.2404,11.28728 -0.12509,-1.51169 -5.74442,-0.11185 -5.74441,-0.11184 v -4.8143 -4.81429 l 5.13973,-0.11282 5.13975,-0.11282 0.12402,-1.713252 0.12402,-1.713248 h -5.26371 -5.26369 v -4.635846 -4.635848 h 5.64363 5.64365 v -1.612468 -1.612469 h -7.45767 -7.45766 v 14.512217 14.512214 h 7.68355 7.68357 z m 8.94502,-11.06556 c 0,-6.917494 0.14916,-12.404926 0.33131,-12.194297 0.18223,0.210629 1.46552,4.101715 2.85178,8.646861 1.38626,4.545146 3.06815,10.041826 3.73754,12.214846 l 1.21708,3.95094 1.84704,-0.12133 1.84705,-0.12132 1.91278,-6.04676 c 1.05204,-3.32571 2.81677,-8.858498 3.92162,-12.295071 l 2.00884,-6.248314 0.0389,12.395855 0.0388,12.39585 h 2.01559 2.01558 V 99.569951 85.057733 h -3.14423 -3.14423 l -3.59813,11.891956 c -1.97898,6.540581 -3.70593,11.891961 -3.83766,11.891961 -0.13179,0 -1.84222,-5.35138 -3.80112,-11.891961 l -3.56164,-11.891956 h -2.96092 -2.96091 v 14.512218 14.512219 h 1.61247 1.61248 z m 33.86183,6.38386 v -6.19338 l 3.77759,-0.1976 c 4.77461,-0.24974 6.86408,-1.24882 8.21514,-3.928071 1.68608,-3.343593 1.02793,-8.389485 -1.36872,-10.493773 -1.85574,-1.629354 -3.62998,-2.013384 -9.31389,-2.015971 l -4.93818,-0.0023 v 14.512232 14.512213 h 1.81402 1.81404 z m 0.26875,-9.796923 c -0.14779,-0.147804 -0.26875,-2.415343 -0.26875,-5.038965 v -4.770219 l 2.72103,6.26e-4 c 3.63543,8.38e-4 5.36292,0.859166 6.06659,3.014286 1.03448,3.168199 -0.23105,5.824481 -3.17756,6.669526 -1.56363,0.448445 -4.9388,0.527271 -5.34131,0.124752 z m 42.95556,9.439663 0.11077,-6.55066 2.21714,-0.12967 c 3.01236,-0.17618 5.09902,0.49393 5.78689,1.8584 0.30309,0.6012 0.66941,2.97602 0.81404,5.27737 0.38768,6.16856 0.35448,6.09521 2.75818,6.09521 1.91639,0 2.00384,-0.0468 1.77696,-0.95071 -0.13118,-0.5229 -0.42262,-3.04971 -0.64752,-5.61515 -0.2249,-2.56543 -0.56987,-5.0854 -0.76661,-5.59993 -0.44096,-1.15324 -1.5528,-2.156897 -2.81709,-2.542996 -0.90266,-0.275662 -0.86466,-0.332809 0.6818,-1.025177 3.81032,-1.705934 4.54613,-8.580768 1.23311,-11.521378 -1.59927,-1.419506 -3.43366,-1.76909 -9.28302,-1.76909 h -5.58349 v 14.512217 14.512214 h 1.80404 1.80405 z m -0.003,-14.512221 0.11397,-4.535067 3.50473,0.0093 c 3.09375,0.0082 3.62032,0.117911 4.49033,0.93525 1.82877,1.71804 1.8137,5.261399 -0.0302,7.105317 -0.93867,0.938661 -1.30699,1.020234 -4.60652,1.020234 h -3.5863 z m 21.36592,17.737151 1.02688,-3.32571 5.62009,-0.11142 5.62009,-0.11142 0.98398,3.33635 0.98398,3.33635 2.16195,0.12366 c 1.6471,0.0942 2.11562,-0.002 1.96742,-0.40312 -0.10696,-0.28972 -2.2498,-6.83051 -4.76181,-14.535083 l -4.56732,-14.008321 h -2.31155 -2.31155 l -1.02045,3.124158 c -0.56126,1.718287 -2.39756,7.477822 -4.08064,12.798966 -1.6831,5.32115 -3.31391,10.44578 -3.62402,11.38806 l -0.56385,1.71325 h 1.92492 1.92492 z m 3.82982,-12.899744 c 1.00216,-3.381146 2.03048,-6.857101 2.28513,-7.724346 l 0.463,-1.57681 2.16983,7.220448 c 1.1934,3.971248 2.25254,7.447202 2.35364,7.724342 0.14032,0.38458 -0.91463,0.5039 -4.45495,0.5039 h -4.63879 z m 21.56907,9.674814 0.11076,-6.55066 2.48833,-0.1192 c 2.93725,-0.14072 5.22064,0.66345 5.7201,2.01451 0.18839,0.50958 0.46253,2.68845 0.60921,4.84194 0.43876,6.44225 0.4047,6.36406 2.77312,6.36406 h 2.01672 l -0.27579,-1.71325 c -0.15175,-0.94228 -0.43731,-3.54294 -0.63477,-5.77923 -0.43517,-4.92846 -0.88367,-6.01204 -2.84691,-6.878223 l -1.51012,-0.666265 1.67525,-0.846195 c 2.09293,-1.057168 3.08469,-2.92057 3.08555,-5.79733 10e-4,-3.591306 -1.47742,-5.908432 -4.39304,-6.88498 -0.76181,-0.255155 -3.84967,-0.45896 -6.95378,-0.45896 h -5.58353 v 14.512218 14.512215 h 1.80404 1.80404 z m 0.0826,-10.509743 c -0.11244,-0.292924 -0.15206,-2.333704 -0.0881,-4.535068 l 0.11625,-4.002477 h 3.49579 c 3.13949,0 3.60111,0.09902 4.52891,0.971485 1.27983,1.203502 1.69954,3.252617 1.08579,5.301131 -0.69284,2.312499 -1.66111,2.797519 -5.58477,2.797519 -2.40394,0 -3.40715,-0.150348 -3.55383,-0.53259 z m 26.43221,11.699793 v -5.36059 l 3.66657,-8.244609 c 2.01661,-4.534533 3.82614,-8.652763 4.02119,-9.151621 0.33737,-0.862854 0.26189,-0.906888 -1.5502,-0.904426 l -1.90484,0.0026 -2.82181,6.847815 c -1.55199,3.766299 -2.91252,6.847487 -3.02337,6.847084 -0.11092,-4.02e-4 -1.40445,-3.037733 -2.87463,-6.749624 l -2.67306,-6.748892 -2.06357,-0.121842 c -1.13496,-0.06701 -2.06355,-0.02121 -2.06355,0.101807 0,0.123015 1.72332,4.223 3.82961,9.111093 l 3.82961,8.887445 v 5.42219 5.42219 h 1.81402 1.81403 z m 21.19813,1.9341 1.06833,-3.42649 h 5.54862 5.54862 l 1.06833,3.42649 1.06832,3.4265 h 2.00257 c 1.1014,0 2.00256,-0.11636 2.00256,-0.25858 0,-0.14221 -2.09325,-6.67271 -4.65165,-14.512213 l -4.65163,-14.253641 h -2.33772 -2.33773 l -4.50453,14.209879 c -2.47748,7.815435 -4.50224,14.345935 -4.49947,14.512215 0.003,0.16629 0.8155,0.30234 1.80605,0.30234 h 1.80101 z m 2.27522,-7.35688 c 1.53983,-5.822152 4.15185,-14.150352 4.36372,-13.913399 0.24743,0.276738 4.4123,13.868859 4.4123,14.399639 0,0.12056 -2.01659,0.21921 -4.48131,0.21921 -4.07024,0 -4.46418,-0.0647 -4.29471,-0.70545 z m 22.88511,4.13195 v -6.65144 h 2.63321 c 3.5058,0 5.22163,0.73994 5.75191,2.48048 0.22607,0.74202 0.51796,3.19348 0.64864,5.44769 0.13073,2.2542 0.34779,4.38568 0.48246,4.73662 0.17826,0.46453 0.79413,0.63808 2.26433,0.63808 1.89881,0 2.00469,-0.0542 1.77209,-0.90701 -0.13605,-0.49886 -0.44001,-3.08385 -0.67548,-5.74442 -0.48267,-5.45399 -1.05941,-6.87564 -3.22208,-7.942205 -0.76921,-0.379357 -1.08961,-0.694749 -0.71665,-0.705455 1.02152,-0.02933 3.19502,-2.032044 3.81457,-3.514866 1.43559,-3.435821 0.0152,-7.75151 -3.06281,-9.303464 -1.61494,-0.814363 -2.38703,-0.907014 -7.55845,-0.907014 h -5.75979 v 14.512217 14.512217 h 1.81403 1.81402 z m 0,-14.561529 v -4.685155 l 3.61064,0.172626 c 2.77286,0.132567 3.80123,0.345106 4.43203,0.915974 1.87313,1.695164 1.77396,5.686224 -0.18325,7.374698 -0.91111,0.785993 -1.50557,0.907013 -4.45539,0.907013 h -3.40403 z m 26.60573,8.313209 V 88.282663 h 3.82961 3.82963 v -1.612468 -1.612469 h -9.47326 -9.47325 v 1.612469 1.612468 h 3.82961 3.82961 v 12.899747 12.89975 h 1.81403 1.81402 z M 95.035725,96.244226 c -0.36946,-1.727046 -4.53667,-14.39407 -4.73737,-14.400104 -0.20332,-0.0061 -5.25454,14.443082 -5.24542,15.00478 0.003,0.166286 2.29357,0.302338 5.09085,0.302338 5.06307,0 5.08508,-0.0041 4.89194,-0.907014 z M 173.5968,72.838563 c 1.57723,-0.815609 2.37323,-1.767181 3.44798,-4.121809 0.8553,-1.873838 0.91387,-2.53826 0.92242,-10.466316 0.009,-7.90709 -0.0482,-8.57182 -0.85865,-10.07793 -1.75172,-3.25494 -4.23652,-4.63585 -8.34175,-4.63585 -4.56985,0 -7.41622,1.96243 -8.56173,5.90288 -0.52336,1.80023 -0.61112,3.64036 -0.46493,9.74775 0.10208,4.26826 0.39292,8.199748 0.67142,9.078363 0.65103,2.054003 2.67247,4.188445 4.66501,4.925822 1.96479,0.727101 6.82067,0.525968 8.52023,-0.35291 z m -7.56434,-2.901142 c -1.96624,-1.068384 -2.3668,-3.015717 -2.3668,-11.506533 0,-8.24227 0.28566,-9.76723 2.0627,-11.01193 1.17606,-0.82374 4.43417,-0.86222 5.96531,-0.0704 2.11957,1.09607 2.45329,2.56139 2.45079,10.76129 -0.001,4.06821 -0.18794,8.065341 -0.41491,8.882518 -0.61215,2.204037 -2.43035,3.556949 -4.75351,3.537047 -1.03614,-0.0088 -2.36075,-0.275254 -2.94358,-0.59195 z M 146.33163,66.31278 v -6.651432 h 5.03896 5.03897 v -1.61247 -1.61247 h -5.03897 -5.03896 v -4.63584 -4.63585 h 5.24052 5.24053 v -1.61247 -1.61247 h -7.05455 -7.05455 v 14.51222 14.512215 h 1.81402 1.81403 z m 40.80563,0.100786 0.11076,-6.550658 2.48833,-0.1192 c 2.93609,-0.14066 5.21873,0.66274 5.72368,2.01451 0.19034,0.50958 0.47014,2.64984 0.62176,4.756127 0.47777,6.63696 0.39797,6.449874 2.75144,6.449874 h 2.02225 l -0.27577,-1.713248 c -0.15159,-0.942287 -0.44371,-3.615723 -0.64899,-5.940972 -0.40369,-4.572811 -0.94267,-5.798471 -2.99133,-6.802201 l -1.12026,-0.54887 1.51768,-0.86204 c 2.26029,-1.28383 3.08987,-3.09786 2.92313,-6.392 -0.14657,-2.89653 -0.783,-4.16033 -2.88663,-5.7324 -0.99291,-0.74202 -1.8007,-0.84575 -7.53354,-0.96734 l -6.42136,-0.13619 v 14.54763 14.547634 h 1.80404 1.80404 z m -0.003,-14.512218 0.11396,-4.53507 h 3.4958 c 3.13946,0 3.6011,0.099 4.52889,0.97149 1.27983,1.2035 1.69953,3.25261 1.08579,5.30113 -0.70159,2.34172 -1.64445,2.79752 -5.78688,2.79752 h -3.55156 z m 30.14621,6.55065 v -14.51221 h -1.81404 -1.81402 v 14.51221 14.512221 h 1.81402 1.81404 z m 9.67481,2.13652 c 0,-6.80663 0.15175,-12.20336 0.33708,-11.99273 0.18539,0.21063 2.77037,5.7755 5.74441,12.36639 l 5.40734,11.983419 2.72613,0.0093 2.72613,0.0093 -0.10589,-14.411439 -0.10589,-14.41144 -1.71323,-0.12396 -1.71325,-0.12395 -0.006,12.41903 -0.006,12.419026 -5.5974,-12.295076 -5.59739,-12.29507 -2.66082,-0.1192 -2.6608,-0.1192 v 14.53064 14.530635 h 1.61247 1.61247 z m 36.14581,11.268332 c 3.55556,-1.884317 4.34801,-4.327452 4.34801,-13.404852 0,-7.03293 -0.32777,-8.9866 -1.89452,-11.2921 -1.67917,-2.47097 -3.37141,-3.00092 -10.07877,-3.15631 l -5.94598,-0.13774 v 14.58616 14.58616 l 5.94598,-0.145671 c 5.18584,-0.127052 6.16066,-0.259448 7.62528,-1.035639 z m -9.84881,-13.304072 0.10711,-11.1865 3.51049,0.01 c 6.0774,0.0165 6.71649,1.06715 6.7374,11.07619 0.0207,9.939072 -0.86546,11.287281 -7.41949,11.287281 h -3.04271 z m 24.09262,-0.10078 v -14.51222 h -1.81402 -1.81404 v 14.51222 14.512215 h 1.81404 1.81402 z m 8.48238,11.186499 1.02316,-3.325717 h 5.6236 5.62363 l 0.99815,3.325717 0.99817,3.325716 h 2.09338 2.0934 l -1.31239,-4.131951 c -0.7218,-2.272573 -2.83211,-8.810674 -4.68957,-14.529114 l -3.37718,-10.39716 -2.39122,0.11767 -2.39121,0.11767 -4.56286,14.31066 c -2.50957,7.870859 -4.56747,14.356005 -4.57312,14.411433 -0.006,0.05543 0.85175,0.100785 1.90533,0.100785 h 1.91558 z m 2.19713,-7.256109 c 0.0952,-0.27714 0.8002,-2.68073 1.56662,-5.3413 0.76639,-2.66058 1.49015,-5.10951 1.60832,-5.44208 0.11823,-0.33257 0.42672,-1.42099 0.68569,-2.41871 l 0.47087,-1.81402 1.72082,5.64364 c 0.94645,3.104 2.00357,6.596 2.34913,7.76 l 0.62832,2.11637 h -4.60147 c -3.50478,0 -4.5602,-0.12009 -4.4283,-0.5039 z m 22.78538,-1.81403 c 0.005,-7.99864 0.14215,-12.18135 0.38968,-11.79117 0.21092,0.33257 2.79314,5.90997 5.73824,12.39421 l 5.35474,11.789546 2.51949,0.0017 2.51949,0.0017 V 58.452128 43.939908 h -1.60665 -1.60664 l -0.10665,12.22084 -0.10665,12.220838 -5.51539,-12.120058 -5.51537,-12.12006 -2.64775,-0.1192 -2.64774,-0.1192 v 14.53064 14.530635 h 1.61248 1.61246 z m -137.5474,-28.88318 c 0.65536,-0.33891 1.6511,-1.1623 2.21274,-1.82978 1.87446,-2.22766 2.09825,-3.60613 2.09825,-12.92447 0,-8.2385499 -0.0453,-8.7516899 -0.91498,-10.3798199 -1.40474,-2.62961 -3.62822,-3.89013 -7.17815,-4.06939 -4.67089,-0.23587 -7.57176,1.21848 -9.08786,4.55616 -0.64059,1.41029 -0.74121,2.75091 -0.74887,9.9787099 -0.008,7.47491 0.0788,8.58363 0.82717,10.58403 0.90835,2.42779 2.43018,3.88512 4.80762,4.60384 1.85351,0.56034 6.47795,0.25956 7.98408,-0.51928 z m -6.9763,-2.63871 c -2.43065,-0.99484 -3.0005,-3.30343 -3.01351,-12.20816 -0.0107,-7.6943199 0.4293,-9.5663299 2.50375,-10.6390599 1.56131,-0.80738 4.51483,-0.79749 5.76138,0.0194 2.1399,1.40213 2.40903,2.60781 2.39118,10.7124099 -0.0192,8.68742 -0.38369,10.52543 -2.32197,11.70728 -1.329,0.81033 -3.86336,1.00479 -5.32083,0.40826 z m 29.0935,3.14348 c 2.43857,-0.61405 4.35872,-2.57004 5.15492,-5.25115 0.49334,-1.66123 0.62121,-4.35888 0.62121,-13.10442 V 2.8218281 h -1.81402 -1.81403 V 13.325928 c 0,11.24083 -0.27173,13.44338 -1.84038,14.91704 -1.2791,1.20166 -4.41094,1.51643 -6.14838,0.61797 -2.54492,-1.31603 -2.67972,-2.01578 -2.82267,-14.65105 L 186.58735,2.8218281 h -1.81329 -1.81327 l 0.12813,11.7911799 0.12813,11.79118 1.13328,2.04404 c 2.02393,3.65046 6.01481,5.00438 11.0293,3.74172 z m 123.35382,0 c 2.43857,-0.61405 4.35872,-2.57004 5.15492,-5.25115 0.89386,-3.00993 0.89187,-17.4483399 -0.003,-19.5893399 -1.40489,-3.36237 -4.06239,-4.90816 -8.46159,-4.92189 -4.71104,-0.0152 -7.56833,2.01477 -8.68733,6.17041 -0.27062,1.00499 -0.38311,4.7048799 -0.29535,9.7146999 0.12844,7.33591 0.2222,8.24208 1.0034,9.70397 2.13632,3.99789 6.1267,5.47309 11.28864,4.1733 z m -6.17503,-3.53893 c -2.03355,-1.23998 -2.35942,-2.83079 -2.35945,-11.51853 -4e-5,-8.2989199 0.20115,-9.2596799 2.25746,-10.7807299 1.30737,-0.96704 4.43556,-1.03768 5.81873,-0.13133 2.26856,1.48642 2.40482,2.11514 2.40482,11.0965299 0,7.62838 -0.0652,8.3922 -0.8283,9.69107 -0.45557,0.77551 -1.27188,1.6345 -1.81402,1.90887 -1.45947,0.7386 -4.03711,0.61356 -5.47924,-0.2658 z M 146.3318,25.194828 v -6.65143 h 5.03896 5.03896 v -1.61247 -1.61246 h -5.03896 -5.03896 v -4.63585 -4.6358499 h 5.24052 5.24053 v -1.61246 -1.61248 h -7.05455 -7.05455 v 14.5122199 14.51222 h 1.81402 1.81403 z m 63.69251,-5.72426 c 0,-6.80662 0.1519,-12.2033599 0.33744,-11.9927299 0.18561,0.21063 2.7706,5.7775599 5.74442,12.3709599 l 5.40697,11.988 2.51949,0.005 2.51947,0.005 V 17.334588 2.8223581 h -1.61246 -1.61247 l -0.003,12.3958599 -0.003,12.39585 -5.59914,-12.29507 -5.59913,-12.2950699 -2.66167,-0.11914 -2.66167,-0.11915 v 14.5306299 14.53064 h 1.61247 1.61248 z m 34.13177,11.91331 c 2.41284,-0.60756 4.71799,-2.80606 5.4326,-5.18125 0.37156,-1.23497 0.54578,-4.13026 0.54578,-9.07014 0,-8.2681899 -0.43535,-10.1456499 -2.8427,-12.2593299 -1.94507,-1.70779 -3.85111,-2.09178 -9.74208,-1.96269 l -5.15238,0.1129 -0.10589,14.4114299 -0.10589,14.41144 h 5.0671 c 2.78691,0 5.89344,-0.20808 6.90341,-0.46239 z m -7.92917,-14.04983 V 6.0467681 l 2.9226,6.3e-4 c 3.51456,7.6e-4 5.36094,0.79761 6.53694,2.82119 0.73954,1.2725499 0.81995,2.1027699 0.81995,8.4654599 0,6.3627 -0.0804,7.19292 -0.81995,8.46546 -1.176,2.02358 -3.02238,2.82044 -6.53694,2.82119 l -2.9226,6.3e-4 z m 22.13514,10.97431 0.98382,-3.33636 5.62906,0.11142 5.62904,0.11142 0.94708,3.18669 c 0.52089,1.75267 1.01982,3.25942 1.10872,3.34833 0.0888,0.0889 1.05125,0.10611 2.13853,0.0383 l 1.97689,-0.1234 -4.67281,-14.31066 -4.6728,-14.3106499 -2.43099,-0.11823 -2.43099,-0.11823 -0.50262,1.73068 c -0.27646,0.95188 -2.30294,7.4013099 -4.50333,14.3320499 -2.20039,6.93075 -4.00069,12.70022 -4.00069,12.82106 0,0.12083 0.85888,0.16441 1.90863,0.0968 l 1.90865,-0.12287 z m 2.14207,-7.04392 c 0.097,-0.27714 1.06881,-3.6316 2.15949,-7.45436 1.09068,-3.8227499 2.07376,-6.9510399 2.18462,-6.9517499 0.20238,-10e-4 4.48051,14.0410399 4.45036,14.6076699 -0.009,0.16629 -2.03092,0.30234 -4.49349,0.30234 -3.40729,0 -4.43524,-0.12044 -4.30098,-0.5039 z m 24.99819,-2.21714 0.1065,-12.7989699 3.72884,-0.11595 3.72882,-0.11594 v -1.59734 -1.59735 h -9.47325 -9.47324 v 1.61248 1.61246 h 3.82961 3.82961 v 12.8997499 12.89975 h 1.80837 1.80836 z m 14.82021,-1.71325 V 2.8218281 h -1.81402 -1.81403 v 14.5122199 14.51222 h 1.81403 1.81402 z m 33.55368,2.18888 0.10665,-12.3233499 5.59492,12.3233499 5.59493,12.32334 h 2.5682 2.5682 V 17.334048 2.8218281 h -1.60664 -1.60665 l -0.10665,12.3633999 -0.10665,12.36339 -5.61624,-12.36339 -5.61623,-12.3633999 h -2.54688 -2.5469 v 14.5122199 14.51222 h 1.60664 1.60665 z"
     id="path4" /></svg>
