<?xml version="1.0" encoding="UTF-8" standalone="no"?>
<!-- Created with Inkscape (http://www.inkscape.org/) -->

<svg
   width="280.48514mm"
   height="117.80094mm"
   viewBox="0 0 280.48514 117.80094"
   version="1.1"
   id="svg1"
   xml:space="preserve"
   xmlns="http://www.w3.org/2000/svg"
   xmlns:svg="http://www.w3.org/2000/svg"><defs
     id="defs1" /><path
     style="fill:#ffffff"
     d="m 11.860593,117.09271 c 1.81954,-0.67116 3.35954,-2.05026 4.0301,-3.60901 0.96465,-2.24241 1.15598,-4.46428 0.95438,-11.08292 -0.20905,-6.863017 -0.0592,-6.430417 -2.22735,-6.429397 -1.71488,8.2e-4 -1.68664,-0.0986 -1.77802,6.258897 -0.1219,8.48009 -0.23596,9.54646 -1.11518,10.42569 -1.41721,1.41721 -4.1590897,1.64892 -6.0322597,0.50978 -1.4964401,-0.91004 -1.5701401,-1.30178 -1.7656601,-9.38583 -0.0984,-4.068537 -0.20369,-7.420497 -0.23399,-7.448797 -0.0303,-0.0283 -0.87353,-0.0927 -1.87385,-0.14318 L 1.3212017e-5,96.096243 0.01511321,103.83893 l 0.0151,7.74268 0.69411,1.51763 c 0.85264999,1.86427 1.74087999,2.82903 3.36987999,3.66023 2.2837801,1.16529 5.1744101,1.28933 7.7663398,0.33325 z m 86.048225,-0.13559 c 1.51083,-0.72453 2.564412,-2.00061 2.856152,-3.45935 0.24308,-1.21538 -0.0437,-2.06058 -1.093552,-3.22261 -0.76936,-0.85159 -1.35938,-1.16043 -3.55487,-1.86082 -3.825055,-1.22022 -4.492365,-1.96372 -2.773385,-3.09004 0.63267,-0.41454 0.8621,-0.42516 2.329325,-0.10776 3.15328,0.68212 2.95716,0.71297 3.71772,-0.58482 0.37836,-0.64563 0.687932,-1.28928 0.687932,-1.43035 0,-0.50376 -3.598482,-1.21558 -5.610867,-1.10988 -2.4933,0.13096 -4.06027,0.87219 -5.0409,2.38454 -0.80619,1.24334 -0.90538,2.19634 -0.36103,3.46858 0.57344,1.34021 1.70994,2.17029 4.07989,2.97986 3.808405,1.30096 4.663915,2.10962 3.390585,3.2049 -1.01243,0.87086 -2.405005,0.80935 -4.542635,-0.20063 -1.69712,-0.80185 -1.74858,-0.80934 -2.27675,-0.33135 -0.29721,0.26897 -0.71544,0.82757 -0.92941,1.24133 -0.34936,0.67559 -0.34342,0.80266 0.0582,1.24646 0.24597,0.2718 1.00772,0.68035 1.69277,0.90789 3.21031,1.06629 5.091505,1.05712 7.370815,-0.0359 z m 56.335942,0.009 c 2.61233,-1.2511 4.04545,-3.7451 4.04302,-7.03596 -0.003,-4.74796 -3.0019,-7.88127 -7.54193,-7.88127 -2.378,0 -3.98724,0.64543 -5.57973,2.23792 -1.76932,1.76932 -2.33674,3.38993 -2.16913,6.19524 0.22419,3.75217 2.43821,6.46783 5.85084,7.17647 1.63301,0.3391 3.83229,0.0569 5.39693,-0.6924 z m -4.82183,-2.57963 c -1.7584,-0.81281 -2.77812,-2.50068 -2.77812,-4.59838 0,-3.26585 2.62226,-5.46915 5.25527,-4.41562 2.72794,1.0915 3.6641,4.29982 2.07397,7.10768 -1.06644,1.88311 -2.9209,2.65988 -4.55112,1.90632 z m 57.7606,2.55392 c 1.71596,-0.86268 3.06974,-2.31573 3.95107,-4.24081 0.56314,-1.23007 0.645,-1.72297 0.53696,-3.2331 -0.28902,-4.0393 -3.31501,-7.06811 -7.34759,-7.35443 -2.11747,-0.15034 -3.53983,0.2148 -5.17874,1.32947 -1.84306,1.25352 -2.81754,3.13312 -2.96601,5.72087 -0.13481,2.34971 0.16871,3.68279 1.21262,5.32596 2.00789,3.16054 6.26292,4.22608 9.79169,2.45204 z m -4.31477,-2.37217 c -1.00268,-0.2612 -2.17932,-1.38269 -2.77075,-2.64089 -1.18989,-2.53139 -0.0943,-5.49481 2.41618,-6.53524 1.09612,-0.45428 1.32733,-0.46773 2.36264,-0.13745 3.24836,1.03626 3.95059,6.66991 1.06909,8.57679 -1.02945,0.68126 -2.20752,0.96334 -3.07716,0.73679 z m 37.35744,2.34638 1.37411,-0.6738 0.48131,0.5944 c 0.42976,0.53073 0.62973,0.5747 1.86704,0.41057 l 1.38573,-0.18382 V 106.6573 96.252333 l -0.92604,-0.17373 c -0.50933,-0.0956 -1.34276,-0.0956 -1.85209,0 l -0.92604,0.17373 v 3.17863 c 0,2.119377 -0.0911,3.122327 -0.27331,3.009707 -0.15032,-0.0929 -1.19212,-0.17156 -2.31511,-0.17478 -3.35992,-0.01 -5.80956,1.31039 -7.14354,3.84943 -0.63588,1.21029 -0.7137,1.6453 -0.71623,4.00366 -0.002,2.10288 0.10394,2.86121 0.51754,3.69539 0.6283,1.26719 2.27629,2.96551 3.26049,3.36007 2.13194,0.85468 3.09021,0.80746 5.26614,-0.25952 z m -2.76154,-2.43021 c -1.13802,-0.26146 -1.64142,-0.71134 -2.22056,-1.98448 -0.67274,-1.4789 -0.63144,-3.4535 0.10227,-4.88939 1.07786,-2.10941 2.91544,-2.83554 5.08195,-2.00815 1.09936,0.41985 1.18605,0.52577 1.35558,1.65629 0.40575,2.70569 -0.46396,6.29455 -1.6759,6.91559 -0.78653,0.40306 -1.74793,0.51585 -2.64334,0.31014 z m -166.193217,2.76773 c 0.63676,-0.22394 1.59915,-0.69852 2.13865,-1.05463 l 0.98091,-0.64746 -0.50286,-1.12317 c -0.27657,-0.61775 -0.61025,-1.15898 -0.74151,-1.20273 -0.13126,-0.0438 -1.14013,0.28141 -2.24192,0.72259 -1.1018,0.44118 -2.28562,0.80215 -2.63073,0.80215 -1.63214,0 -4.17917,-2.12013 -4.17917,-3.47872 0,-0.46117 0.32175,-0.49003 5.46165,-0.49003 h 5.46165 l -0.16581,-1.52136 c -0.36926,-3.38805 -1.57087,-5.58548 -3.55261,-6.4968 -1.77433,-0.81594 -5.29518,-0.81879 -6.80801,-0.006 -1.33737,0.71896 -2.54761,1.99852 -3.33471,3.52574 -0.87758,1.70275 -0.87264,5.09519 0.0103,7.08757 0.75873,1.71207 2.56016,3.3652 4.22639,3.87848 1.6299,0.50209 4.45582,0.50395 5.87776,0.004 z m -6.80969,-9.69579 c 0.5834,-2.91698 4.79878,-3.45218 6.22345,-0.79016 0.17495,0.32689 0.24394,0.82798 0.15331,1.11352 -0.15172,0.47803 -0.41762,0.51918 -3.35502,0.51918 h -3.19025 z m 56.174317,9.41049 c 0.90138,-0.67054 1.05256,-1.43385 0.46237,-2.3346 -0.49855,-0.76087 -1.06428,-0.84525 -1.82243,-0.27181 -0.77139,0.58345 -1.42694,0.47301 -2.28489,-0.38494 l -0.7734,-0.7734 v -3.94937 -3.94936 l 1.98438,0.12735 c 1.97552,0.12678 1.98437,0.12439 1.98437,-0.53583 0,-0.36475 0.0744,-1.03525 0.16537,-1.49 l 0.16536,-0.82683 h -1.73122 c -2.61573,0 -2.56826,0.0494 -2.56826,-2.674137 v -2.35294 h -1.85208 -1.85208 v 2.470227 2.47023 l -1.12448,-0.0228 -1.12448,-0.0228 -0.0821,1.29369 c -0.0971,1.52974 0.069,1.74972 1.35845,1.7982 l 0.97266,0.0366 v 3.51598 c 0,5.38838 0.48907,6.90027 2.60354,8.04841 1.33971,0.72746 4.43987,0.63097 5.51897,-0.17177 z m 138.60624,0.19229 c 1.68699,-0.76622 2.88231,-1.99005 3.70386,-3.79218 0.63286,-1.38822 0.75668,-2.00814 0.75445,-3.77744 -0.002,-1.76754 -0.11781,-2.3388 -0.70079,-3.4634 -0.78492,-1.51416 -2.12474,-2.80621 -3.58623,-3.45836 -1.24657,-0.55626 -5.07057,-0.62836 -6.50703,-0.12269 -3.40505,1.19865 -5.42784,5.72904 -4.29613,9.62198 0.615,2.11554 1.84417,3.59902 3.83669,4.63048 1.45948,0.75553 1.91472,0.86107 3.69215,0.85597 1.39613,-0.004 2.36232,-0.15793 3.10303,-0.49436 z m -4.59998,-2.85521 c -2.14124,-1.05516 -3.38218,-4.60742 -2.32162,-6.64578 0.70942,-1.36349 2.69699,-2.67078 3.86159,-2.5399 0.21828,0.0245 0.5961,0.0583 0.8396,0.0751 0.72273,0.0498 2.1106,1.38564 2.63183,2.53312 0.88317,1.94429 0.58177,4.08933 -0.77628,5.52467 -1.42391,1.50496 -2.68257,1.81784 -4.23512,1.05277 z m -220.445437,-2.1537 c 0,-5.90278 -0.20712,-6.95735 -1.66104,-8.45742 -1.17743,-1.2148 -3.22358,-1.79499 -4.90175,-1.38991 -0.68333,0.16495 -1.53983,0.52548 -1.90334,0.80118 -0.64571,0.48974 -0.67311,0.48989 -1.19063,0.006 -0.56157,-0.52458 -1.1611,-0.6401 -2.97709,-0.57364 l -1.12448,0.0412 v 6.85752 c 0,3.77165 0.0723,7.04587 0.1606,7.27605 0.12495,0.32562 0.5654,0.41851 1.98437,0.41851 h 1.82378 v -4.7422 -4.7422 l 0.71525,-0.85003 c 0.75,-0.89132 2.05178,-1.57182 3.00687,-1.57182 0.31027,0 0.96894,0.40481 1.46371,0.89958 l 0.89958,0.89959 v 5.00945 c 0,2.75519 0.0509,5.05905 0.1132,5.11968 0.0623,0.0606 0.89569,0.14626 1.85208,0.19029 l 1.73889,0.08 z m 47.36042,0.27854 c 0.15069,-5.43326 0.14754,-5.42499 2.43587,-6.4094 0.92037,-0.39593 1.60992,-0.52569 2.20262,-0.4145 l 0.86281,0.16186 0.26857,-1.52819 c 0.14771,-0.8405 0.17236,-1.62901 0.0548,-1.75223 -0.46104,-0.48316 -2.97755,-0.20897 -4.34139,0.47302 -1.33889,0.66951 -1.35422,0.67083 -1.71397,0.14714 -0.29338,-0.42706 -0.66131,-0.52841 -1.91823,-0.52841 h -1.55523 v 7.25764 7.25764 l 0.59531,0.0845 c 0.32742,0.0465 1.1311,0.0702 1.78594,0.0526 l 1.19062,-0.0319 z m 25.929157,-2.50852 v -7.34219 h -1.85208 -1.85208 v 7.25847 7.25847 l 0.7276,0.0837 c 0.40018,0.046 1.23362,0.0837 1.85208,0.0837 h 1.12448 z m 172.98179,2.57969 c 0.0829,-5.15305 -0.11465,-6.54873 -1.15064,-8.13071 -1.39173,-2.12522 -4.69692,-2.77446 -7.286,-1.4312 -1.28172,0.66498 -1.31177,0.66791 -1.62974,0.15875 -0.26785,-0.42889 -0.62222,-0.51876 -2.04624,-0.51896 l -1.72229,-2.4e-4 0.0661,6.1518 c 0.0364,3.3835 0.13295,6.65782 0.21465,7.27629 l 0.14855,1.12448 h 1.80689 1.80688 l 0.0112,-4.79561 0.0112,-4.79562 0.74538,-0.78426 c 1.64211,-1.72775 3.07713,-1.87805 4.57468,-0.47912 l 0.80091,0.74816 v 5.17452 5.17451 l 1.78594,-0.0551 1.78594,-0.0551 z m -239.458347,4.46344 0.59531,-0.15953 v -7.1129 -7.11289 h -1.85208 -1.85208 v 7.27604 7.27605 l 1.25677,-0.004 c 0.69122,-0.002 1.52466,-0.0754 1.85208,-0.16315 z m 15.27435,-6.77855 c 1.56487,-3.81992 2.90359,-7.09414 2.97494,-7.27604 0.0963,-0.24544 -0.3479,-0.33073 -1.72236,-0.33073 -1.51941,0 -1.88419,0.0832 -2.03083,0.46302 -0.0983,0.25466 -0.77256,2.17403 -1.49834,4.26527 -1.34136,3.86495 -2.01256,5.25783 -2.3499,4.87645 -0.10314,-0.11662 -0.93729,-2.29562 -1.85365,-4.84224 -0.91637,-2.54661 -1.68723,-4.6598 -1.71303,-4.69597 -0.146,-0.2047 -4.10411,-0.3702 -4.10148,-0.1715 0.0159,1.20086 1.21812,4.32355 3.50375,9.1008 0.93992,1.96454 1.86898,4.01837 2.06459,4.56407 l 0.35566,0.99219 h 1.76271 1.76272 z m 109.901747,1.98438 c 0.004,-2.72852 0.0135,-5.40221 0.0222,-5.94154 l 0.0158,-0.98059 1.91809,-0.0777 1.91808,-0.0777 -0.0907,-1.05834 c -0.0499,-0.58208 -0.13719,-1.10604 -0.19407,-1.16435 -0.0569,-0.0583 -0.84945,-0.17737 -1.76128,-0.26458 l -1.65787,-0.15857 0.0191,-1.29558 c 0.028,-1.901337 0.71261,-2.388867 3.07833,-2.192047 l 1.77446,0.14763 0.55924,-0.90486 c 0.30758,-0.49767 0.47597,-1.03959 0.3742,-1.20425 -0.39545,-0.63985 -2.60788,-1.36511 -4.19967,-1.37671 -1.72072,-0.0125 -2.79889,0.39989 -3.77201,1.44287 -0.7389,0.79196 -1.65565,2.80541 -1.66787,3.663157 -0.0223,1.56598 -0.25234,1.85209 -1.4891,1.85209 h -1.1606 l 0.15025,1.25174 c 0.17253,1.43722 0.39906,1.64902 1.76965,1.65462 0.94847,0.004 1.29109,0.31726 0.7276,0.66551 -0.30505,0.18854 -0.33598,2.79124 -0.0904,7.60677 l 0.17205,3.37344 h 1.78904 1.78905 z m 27.81921,3.37344 v -1.5875 h -5.02352 -5.02351 l -0.0697,-8.7974 -0.0697,-8.797397 -0.95232,-0.23536 c -0.52378,-0.12945 -1.38698,-0.15382 -1.91823,-0.0542 l -0.96591,0.18121 v 10.439047 10.43905 h 7.01146 7.01146 z m 24.00078,1.22212 c 0.11473,-0.11512 0.2086,-2.0743 0.2086,-4.35373 0,-4.6153 0.26482,-5.62413 1.69874,-6.47117 1.19653,-0.70681 2.96823,-0.59621 3.74524,0.23379 0.63015,0.67314 0.64143,0.76967 0.64143,5.49011 0,2.64271 0.0963,4.95375 0.21405,5.13565 0.13475,0.20819 0.84544,0.33073 1.91823,0.33073 h 1.70418 v -5.47725 -5.47725 l -0.8599,-1.42738 c -0.90797,-1.5072 -1.9757,-2.24787 -3.70932,-2.5731 -1.29667,-0.24326 -3.47628,0.3053 -4.44209,1.11797 l -0.77827,0.65488 v -0.68498 c 0,-0.73479 0.11714,-0.7011 -2.57969,-0.74169 l -1.25677,-0.0189 -0.0457,7.34337 -0.0457,7.34338 1.68915,-0.10756 c 0.92904,-0.0592 1.78303,-0.20174 1.89775,-0.31686 z M 41.268793,99.827933 c 0.0466,-0.0466 0.15858,-0.87558 0.24884,-1.84218 l 0.16411,-1.75745 h -1.89034 -1.89034 v 1.80799 c 0,0.99439 0.0531,1.86109 0.118,1.92599 0.12799,0.127987 3.11071,0.005 3.24973,-0.13435 z m 66.947557,-1.35067 c 0.0376,-0.87312 -0.0219,-1.72262 -0.13229,-1.88777 -0.11039,-0.16516 -1.03415,-0.34375 -2.0528,-0.39688 l -1.85208,-0.0966 -0.0798,1.69192 c -0.11531,2.445877 -0.11573,2.445417 2.12646,2.354637 l 1.92205,-0.0778 z M 256.44689,81.256639 c 2.37937,-0.23736 6.36496,-1.30786 8.86006,-2.37974 5.91668,-2.54178 10.11489,-6.45841 12.73955,-11.88505 6.17027,-12.75746 0.18936,-27.22445 -13.36413,-32.32597 -0.94699,-0.35645 -4.16964,-1.35972 -7.16145,-2.2295 -8.39943,-2.44189 -12.15153,-4.48996 -13.61839,-7.43357 -1.97941,-3.97216 0.47831,-7.97983 5.90347,-9.62649 0.66931,-0.20315 2.29088,-0.37066 3.6035,-0.37223 4.07295,-0.005 7.85992,1.3747 12.7518,4.64547 1.39979,0.93592 2.62583,1.70167 2.72453,1.70167 0.0987,0 1.01266,-0.92274 2.03104,-2.05053 5.63512,-6.24054 7.22585,-8.15009 7.22585,-8.67407 0,-0.6401098 -2.83637,-3.4911198 -4.81303,-4.8378698 -3.08709,-2.10332 -8.16531,-4.0429 -13.04634,-4.98293997 -3.29431,-0.63445 -11.00278,-0.63675 -14.21072,-0.004 -8.39759,1.65577997 -14.17459,5.61634997 -17.62456,12.08296977 -1.67113,3.13237 -2.45983,5.98037 -2.62625,9.48339 -0.3218,6.77363 1.72242,12.13811 6.41659,16.83856 3.80291,3.808 4.80612,4.27767 17.99077,8.4227 8.65173,2.71996 11.90844,5.37498 11.9048,9.70535 -0.004,4.24444 -3.52262,7.63376 -8.82568,8.50031 -5.74787,0.93923 -14.13633,-2.39564 -19.2119,-7.63777 l -1.47558,-1.524 -1.23171,1.32291 c -4.63092,4.97384 -9.60264,10.64179 -9.60264,10.94739 0,0.13131 0.71841,0.93364 1.59646,1.78296 5.55422,5.37251 14.22953,9.36202 22.61292,10.39899 4.1807,0.51713 6.31466,0.54393 10.45104,0.13129 z M 37.901063,80.655969 c 4.22504,-0.99981 7.27548,-2.28205 10.42898,-4.38379 4.77721,-3.1839 7.873,-7.39421 9.58852,-13.04051 0.62211,-2.04754 0.70801,-2.78342 0.71925,-6.1617 0.0105,-3.1523 -0.0925,-4.23605 -0.57778,-6.07718 -1.95305,-7.41053 -7.32402,-13.32491 -14.67502,-16.15976 -1.13605,-0.4381 -4.1146,-1.3842 -6.61902,-2.10244 -7.67717,-2.20174 -10.42325,-3.39399 -12.68057,-5.50544 -4.59949,-4.30229 -2.74288,-9.80229 3.99975,-11.84883 1.82196,-0.55301 5.62426,-0.47646 7.91889,0.15941 2.3164,0.64191 5.91651,2.41253 8.89885,4.37666 1.2016,0.79136 2.29064,1.43177 2.42008,1.42314 0.26493,-0.0177 9.17547,-10.13589 9.32735,-10.59153 0.15112,-0.45336 -3.39364,-3.7785098 -5.42141,-5.0855398 -3.50876,-2.26162 -7.57539,-3.88383 -12.13725,-4.84163997 -3.332,-0.69959 -11.7147,-0.70692 -14.895,-0.013 C 15.056243,2.7981292 8.6182833,7.7190892 5.8777733,14.806179 c -1.3339901,3.44974 -1.6697501,5.28143 -1.6847901,9.19091 -0.0113,2.95275 0.0907,3.93616 0.58853,5.67357 2.2172201,7.73742 8.2603498,13.26879 17.5091298,16.0264 1.52797,0.45558 4.63194,1.41835 6.89772,2.1395 5.93125,1.8878 9.1787,3.92597 10.62529,6.66865 0.82879,1.57135 0.82786,4.35007 -0.002,6.03623 -1.63002,3.31193 -5.7843,5.52439 -10.37297,5.52439 -5.38163,0 -13.09389,-3.61179 -17.14149,-8.02767 -0.62146,-0.67801 -1.23975,-1.23274 -1.37398,-1.23274 -0.42185,0 -3.3066397,2.81456 -6.1433898,5.99383 -3.26343,3.65747 -4.44957999,5.27378 -4.44957999,6.06325 0,0.96142 5.06215009,5.28078 8.59896009,7.33721 3.7271697,2.1671 10.0574297,4.29871 14.6574397,4.93565 3.04941,0.42223 11.73333,0.13142 14.31444,-0.47936 z m 71.305197,0.0899 c 8.95033,-1.34674 16.1308,-5.10047 22.59312,-11.811 12.61894,-13.10363 14.86755,-33.54177 5.45395,-49.57214 -6.13521,-10.4476198 -15.69498,-17.0671398 -27.5179,-19.05435977 -3.01983,-0.50758 -10.984862,-0.36352 -13.750632,0.2487 C 84.296843,3.1442792 74.927613,10.383769 69.415753,21.086679 c -1.85762,3.60712 -2.89049,6.4499 -3.90086,10.73643 -0.69405,2.94452 -0.74347,3.53235 -0.74347,8.84274 0,5.31039 0.0494,5.89822 0.74347,8.84274 2.16229,9.17357 5.90365,15.64184 12.45963,21.54086 8.43031,7.58555 20.453145,11.31824 31.231737,9.69642 z m -9.424162,-16.67992 c -9.303395,-1.68411 -16.688485,-9.03553 -18.661605,-18.57654 -0.57517,-2.78126 -0.37166,-8.98703 0.3751,-11.43814 2.2172,-7.27753 6.23906,-12.22503 12.36484,-15.21062 5.714055,-2.78493 11.472237,-3.18894 17.258577,-1.21092 8.31771,2.84334 14.52059,10.90924 15.66687,20.37235 1.88317,15.54639 -11.85478,28.80617 -27.003782,26.06387 z m 59.097002,16.61813 c 0.22553,-0.25466 1.63577,-4.39209 3.13387,-9.19427 1.49809,-4.80219 2.75186,-8.77196 2.78616,-8.82171 0.14088,-0.20437 27.42573,-0.0746 27.61656,0.13131 0.11402,0.12305 1.48363,4.09326 3.04358,8.82269 1.55996,4.72942 2.94671,8.80732 3.08167,9.06198 0.22678,0.42788 0.96987,0.46302 9.79195,0.46302 8.96745,0 9.53829,-0.0281 9.41035,-0.46302 -0.0749,-0.25466 -0.90742,-2.60615 -1.85001,-5.22552 -0.94259,-2.61938 -2.09622,-5.83407 -2.56362,-7.14375 -3.32884,-9.32751 -4.61668,-12.91968 -5.16971,-14.41979 -0.62983,-1.70845 -9.38503,-26.22188 -10.63106,-29.76563 -0.35817,-1.01864 -2.07936,-5.84068 -3.82486,-10.71562 -2.82295,-7.8840998 -3.47181,-9.6787898 -4.51989,-12.50156977 l -0.27015,-0.7276 h -9.72154 -9.72154 l -0.41989,1.12447997 c -0.23094,0.61846 -4.42255,12.3758798 -9.31469,26.1276098 -4.89213,13.75171 -11.14873,31.32707 -13.90355,39.05635 -2.75482,7.72929 -5.00876,14.18843 -5.00876,14.35365 0,0.21815 2.41583,0.30041 8.82254,0.30041 8.06981,0 8.85752,-0.0395 9.23259,-0.46302 z m 10.78445,-32.74728 c 0,-0.41796 8.92529,-29.5136 9.11023,-29.69854 0.0578,-0.0578 0.42292,0.94644 0.81144,2.23159 0.93152,3.08123 8.32147,27.11242 8.46842,27.53819 0.0899,0.26045 -1.85179,0.33073 -9.13797,0.33073 -8.0998,0 -9.25212,-0.0501 -9.25212,-0.40197 z"
     id="path4" /></svg>
